<?xml version="1.0" encoding="utf-8"?>
<!-- Generator: Adobe Illustrator 17.0.0, SVG Export Plug-In . SVG Version: 6.00 Build 0)  -->
<!DOCTYPE svg PUBLIC "-//W3C//DTD SVG 1.1//EN" "http://www.w3.org/Graphics/SVG/1.1/DTD/svg11.dtd">
<svg version="1.1" id="Layer_1" xmlns="http://www.w3.org/2000/svg" xmlns:xlink="http://www.w3.org/1999/xlink" x="0px" y="0px"
	 width="203px" height="98px" viewBox="0 0 203 98" enable-background="new 0 0 203 98" xml:space="preserve">
<g>
	<polygon fill="#FFFFFF" points="202.934,98 0.066,98 39.411,9.599 163.589,9.599 	"/>
	<polygon fill="#E6E7E8" points="198.873,95.717 4.127,95.717 41.127,10.972 161.873,10.972 	"/>
	<g>
		<polygon fill="#BCBEC0" points="110.023,84.289 85.243,77.741 79.433,95.717 107.021,95.717 		"/>
		<path fill="#BCBEC0" d="M130.634,43.106l-14.116-32.134H68.927c0,6.229,0,16.027,0,29.165c30.536,0,51.576,1.294,51.576,1.294
			L130.634,43.106z"/>
		<polygon fill="#BCBEC0" points="175.347,41.833 138.56,40.136 136.548,61.433 144.596,62.479 179.326,50.947 		"/>
	</g>
	<g>
		<path fill="#E6E7E8" d="M140.494,44.218c0,0,0-0.008,0-33.246h-27.487c0,5.932,0,13.854,0,19.338
			c5.664,2.764,17.627,12.796,17.627,12.796L140.494,44.218z"/>
		<path fill="#E6E7E8" d="M165.81,19.99c-7.033,2.71-12.35,5.771-12.35,8.831c5.438,0,10.958,0,16.206,0L165.81,19.99z"/>
		<path fill="#E6E7E8" d="M47.686,80.25c2.945,0,47.617,5.018,54.659,5.645c7.042,0.627,44.263-3.763,44.263-3.763l-11.066-15.053
			L91.784,56.834L42.321,66.66v13.802C42.321,80.462,44.742,80.25,47.686,80.25z"/>
	</g>
	<g>
		<path fill="#D1D3D4" d="M90.077,40.136c0,0,0,0,0,10.902c25.963,0,34.378,9.846,34.378,9.846h16.039V44.218
			C128.406,37.397,90.077,40.136,90.077,40.136z"/>
		<rect x="42.321" y="10.971" fill="#D1D3D4" width="37.181" height="64.277"/>
		<path fill="#D1D3D4" d="M169.666,28.821H157.18c0,0-2.002-2.081,5.339-5.826c0.954-0.487,2.297-1.03,3.902-1.607l-4.548-10.417
			h-21.379v33.246c0,0,17.714,0,35.894,0L169.666,28.821z"/>
	</g>
	<g>
		<polygon fill="#F1F2F2" points="153.241,82.131 112.788,71.395 107.159,95.717 111.343,95.717 		"/>
		<path fill="#F1F2F2" d="M93.291,80.459L51.71,77.741c0,0-2.458,8.988-1.486,17.977h34.601L93.291,80.459z"/>
		<path fill="#F1F2F2" d="M90.077,51.038V40.136h-21.15v11.801C73.74,51.937,90.077,51.038,90.077,51.038z"/>
	</g>
	<path fill="#C9DDF2" d="M194.6,85.93c-6.662-1.486-20.036-5.427-32.28-14.856C153.882,61,112.588,44.321,56.213,52.94
		c-12.481,2.005-28.802,9.935-39.693,14.391L9.225,84.04c9.055-3.701,40.203-16.156,51.656-17.108
		c13.465-1.119,43.089-4.366,57.093,1.567c14.004,5.933,20.467,11.082,26.751,16.231c3.007,2.464,10.443,7.304,20.128,10.987h34.02
		L194.6,85.93z"/>
	<path fill="#FFFFFF" d="M186.155,63.387l-0.807-1.908h-51.816l-10.296-27.542h50.472l-0.845-2h-50.374l-7.977-21.338h-2.135
		l7.977,21.338H82.54l7.98-21.338h-2.135l-7.98,21.338H31.258l-0.858,2h49.257L69.356,61.479H18.587l-0.858,2h50.879L56.071,97
		h2.135l12.537-33.521h61.402L144.677,97h2.135L134.28,63.479h51.467C185.893,63.479,186.03,63.444,186.155,63.387z M71.491,61.479
		l10.301-27.542h39.309l10.296,27.542H71.491z"/>
	<g>
		
			<rect x="62.978" y="33.302" transform="matrix(0.856 0.5169 -0.5169 0.856 28.195 -32.6325)" fill="#A7D383" width="19.408" height="2"/>
	</g>
	<g>
		<polygon fill="#A7D383" points="144.425,67.979 115.285,52.315 117.157,48.78 146.296,64.444 		"/>
	</g>
	<g>
		<polygon fill="#A7D383" points="59.28,69.709 57.471,66.713 87.641,48.741 89.45,51.737 		"/>
	</g>
	<g>
		<polygon fill="#A7D383" points="121.748,40.108 120.332,37.809 135.84,28.496 137.256,30.795 		"/>
	</g>
	<g>
		<g>
			<circle fill="#FFFFFF" cx="57.777" cy="26.803" r="8.758"/>
			<path fill="#A7D383" d="M57.777,36.803c-5.514,0-10-4.486-10-10c0-5.514,4.486-10,10-10c5.514,0,10,4.486,10,10
				C67.777,32.317,63.291,36.803,57.777,36.803z M57.777,18.673c-4.483,0-8.131,3.648-8.131,8.131c0,4.483,3.648,8.131,8.131,8.131
				s8.131-3.648,8.131-8.131C65.908,22.32,62.26,18.673,57.777,18.673z"/>
		</g>
		<circle fill="#A7D383" cx="57.777" cy="22.885" r="2.708"/>
		<path fill="#A7D383" d="M63.122,31.734c-0.087-2.881-2.443-5.191-5.345-5.191s-5.259,2.31-5.345,5.191L63.122,31.734z"/>
	</g>
	<g>
		<g>
			<circle fill="#FFFFFF" cx="147.49" cy="25.516" r="11.738"/>
			<path fill="#A7D383" d="M147.49,38.464c-7.139,0-12.948-5.808-12.948-12.948c0-7.139,5.808-12.947,12.948-12.947
				s12.948,5.808,12.948,12.947C160.437,32.656,154.629,38.464,147.49,38.464z M147.49,14.989c-5.805,0-10.528,4.723-10.528,10.528
				c0,5.805,4.723,10.528,10.528,10.528c5.805,0,10.528-4.723,10.528-10.528C158.018,19.711,153.295,14.989,147.49,14.989z"/>
		</g>
		<path fill="#A7D383" d="M147.49,16.635c-2.001,0-3.63,1.628-3.63,3.63c0,2.001,1.628,3.63,3.63,3.63s3.63-1.628,3.63-3.63
			C151.12,18.263,149.491,16.635,147.49,16.635z"/>
		<path fill="#A7D383" d="M154.654,32.125c-0.116-3.861-3.275-6.958-7.164-6.958s-7.048,3.096-7.164,6.958H154.654z"/>
	</g>
	<g>
		<path fill="#A7D383" d="M122.608,38.267c0-11.991-9.756-21.747-21.747-21.747c-11.991,0-21.747,9.756-21.747,21.747
			c0,4.241,1.225,8.199,3.333,11.549L100.9,72.521l18.405-22.753C121.395,46.429,122.608,42.488,122.608,38.267z"/>
		<g>
			<path fill="#FFFFFF" d="M92.465,57.104l1.398-10.547H89.45v-3.175h4.899l1.021-7.804h-4.627v-3.175h5.114l1.398-10.28h3.12
				l-1.345,10.28h5.6l1.398-10.28h3.177l-1.345,10.28h4.413v3.175h-4.899l-0.968,7.804h4.627v3.175h-5.114l-1.398,10.547h-3.229
				l1.402-10.547h-5.6l-1.398,10.547H92.465z M103.174,43.382l1.021-7.804H98.6l-1.021,7.804H103.174z"/>
		</g>
	</g>
	<g>
		<g>
			<circle fill="#FFFFFF" cx="153.131" cy="69.132" r="19.402"/>
			<path fill="#A7D383" d="M153.131,90.534c-11.802,0-21.402-9.601-21.402-21.402c0-11.801,9.601-21.402,21.402-21.402
				s21.402,9.601,21.402,21.402C174.533,80.933,164.933,90.534,153.131,90.534z M153.131,51.73c-9.596,0-17.402,7.807-17.402,17.402
				c0,9.595,7.807,17.402,17.402,17.402s17.402-7.807,17.402-17.402C170.533,59.537,162.727,51.73,153.131,51.73z"/>
		</g>
		<path fill="#A7D383" d="M153.131,54.451c-3.308,0-6,2.692-6,6c0,3.308,2.692,6,6,6s6-2.692,6-6
			C159.131,57.143,156.439,54.451,153.131,54.451z"/>
		<path fill="#A7D383" d="M164.973,80.056c-0.192-6.382-5.413-11.501-11.842-11.501s-11.65,5.118-11.842,11.501H164.973z"/>
	</g>
	<g>
		<g>
			<circle fill="#FFFFFF" cx="51.679" cy="72.705" r="15.193"/>
			<path fill="#A7D383" d="M51.679,89.464c-9.241,0-16.759-7.518-16.759-16.759c0-9.24,7.518-16.758,16.759-16.758
				s16.759,7.518,16.759,16.758C68.437,81.946,60.92,89.464,51.679,89.464z M51.679,59.079c-7.514,0-13.627,6.113-13.627,13.626
				c0,7.514,6.113,13.627,13.627,13.627s13.627-6.113,13.627-13.627C65.305,65.192,59.192,59.079,51.679,59.079z"/>
		</g>
		<path fill="#A7D383" d="M51.679,61.209c-2.591,0-4.698,2.108-4.698,4.698c0,2.59,2.108,4.698,4.698,4.698s4.698-2.108,4.698-4.698
			C56.377,63.317,54.269,61.209,51.679,61.209z"/>
		<path fill="#A7D383" d="M60.952,81.259c-0.15-4.998-4.239-9.006-9.273-9.006s-9.123,4.008-9.273,9.006H60.952z"/>
	</g>
</g>
</svg>
