<?xml version="1.0" encoding="utf-8"?>
<!-- Generator: Adobe Illustrator 17.0.0, SVG Export Plug-In . SVG Version: 6.00 Build 0)  -->
<!DOCTYPE svg PUBLIC "-//W3C//DTD SVG 1.1//EN" "http://www.w3.org/Graphics/SVG/1.1/DTD/svg11.dtd">
<svg version="1.1" id="Layer_1" xmlns="http://www.w3.org/2000/svg" xmlns:xlink="http://www.w3.org/1999/xlink" x="0px" y="0px"
	 width="203px" height="98px" viewBox="0 0 203 98" enable-background="new 0 0 203 98" xml:space="preserve">
<g>
	<polygon fill="#FFFFFF" points="202.934,98 0.066,98 39.411,9.599 163.589,9.599 	"/>
	<polygon fill="#E6E7E8" points="198.873,95.717 4.127,95.717 41.127,10.971 161.873,10.971 	"/>
	<g>
		<polygon fill="#BCBEC0" points="110.023,84.289 85.243,77.741 79.433,95.717 107.021,95.717 		"/>
		<path fill="#BCBEC0" d="M130.634,43.106l-14.116-32.134H68.927c0,6.229,0,16.027,0,29.165c30.536,0,51.576,1.294,51.576,1.294
			L130.634,43.106z"/>
		<polygon fill="#BCBEC0" points="175.347,41.833 138.56,40.136 136.548,61.433 144.596,62.479 179.326,50.947 		"/>
	</g>
	<g>
		<path fill="#E6E7E8" d="M140.494,44.218c0,0,0-0.008,0-33.246h-27.487c0,5.932,0,13.854,0,19.338
			c5.664,2.764,17.627,12.796,17.627,12.796L140.494,44.218z"/>
		<path fill="#E6E7E8" d="M165.81,19.99c-7.033,2.71-12.35,5.771-12.35,8.831c5.438,0,10.958,0,16.206,0L165.81,19.99z"/>
		<path fill="#E6E7E8" d="M47.686,80.25c2.945,0,47.617,5.018,54.659,5.645c7.042,0.627,44.263-3.763,44.263-3.763l-11.066-15.053
			L91.784,56.834L42.321,66.66v13.802C42.321,80.462,44.742,80.25,47.686,80.25z"/>
	</g>
	<g>
		<path fill="#D1D3D4" d="M90.077,40.136c0,0,0,0,0,10.902c25.963,0,34.378,9.846,34.378,9.846h16.039V44.218
			C128.406,37.397,90.077,40.136,90.077,40.136z"/>
		<rect x="42.321" y="10.971" fill="#D1D3D4" width="37.181" height="64.277"/>
		<path fill="#D1D3D4" d="M169.666,28.821H157.18c0,0-2.002-2.081,5.339-5.826c0.954-0.487,2.297-1.03,3.902-1.607l-4.548-10.417
			h-21.379v33.246c0,0,17.714,0,35.894,0L169.666,28.821z"/>
	</g>
	<g>
		<polygon fill="#F1F2F2" points="153.241,82.131 112.788,71.395 107.159,95.717 111.343,95.717 		"/>
		<path fill="#F1F2F2" d="M93.291,80.459L51.71,77.741c0,0-2.458,8.988-1.486,17.977h34.601L93.291,80.459z"/>
		<path fill="#F1F2F2" d="M90.077,51.038V40.136h-21.15v11.801C73.74,51.937,90.077,51.038,90.077,51.038z"/>
	</g>
	<path fill="#C9DDF2" d="M194.6,85.93c-6.662-1.486-20.036-5.427-32.28-14.856C153.882,61,112.588,44.321,56.213,52.94
		c-12.481,2.005-28.802,9.935-39.693,14.391L9.225,84.04c9.055-3.701,40.203-16.156,51.656-17.108
		c13.465-1.119,43.089-4.366,57.093,1.567c14.004,5.933,20.467,11.082,26.751,16.231c3.007,2.464,10.443,7.304,20.128,10.987h34.02
		L194.6,85.93z"/>
	<g>
		<path fill="#D1D3D4" d="M109.79,83.552l5.292-2.925h-6.833l-5.292,2.925H109.79z"/>
	</g>
	<path fill="#FFFFFF" d="M186.148,63.387l-0.807-1.908h-51.816l-10.296-27.542H173.7l-0.845-2h-50.374l-7.977-21.338h-2.135
		l7.977,21.338H82.533l7.98-21.338h-2.135l-7.98,21.338H31.251l-0.858,2H79.65L69.349,61.479H18.58l-0.858,2h50.879L56.064,97h2.135
		l12.537-33.521h61.402L144.67,97h2.135l-12.532-33.521h51.467C185.886,63.479,186.023,63.444,186.148,63.387z M71.484,61.479
		l10.301-27.542h39.309l10.296,27.542H71.484z"/>
	<g>
		<path fill="#F0924D" d="M102.907,71.938l1.247-9.53h-6.833l-1.247,9.53H102.907z"/>
	</g>
	<g>
		<rect x="49.12" y="58.741" fill="#FFFFFF" width="27.374" height="2"/>
	</g>
	<g>
		<rect x="133.756" y="61.741" fill="#FFFFFF" width="42.584" height="2"/>
	</g>
	<polygon fill="#A7D383" points="123.122,41.479 138.074,25.63 123.122,25.63 	"/>
	<g>
		<g>
			<path fill="#A7D383" d="M150.147,6.971c0-2.2-1.8-4-4-4H56.853c-2.2,0-4,1.8-4,4v18.46c0,2.2,1.8,4,4,4h89.293c2.2,0,4-1.8,4-4
				V6.971z"/>
		</g>
		<g>
			<g>
				<rect x="85.293" y="8.645" fill="#FFFFFF" width="58.957" height="3.198"/>
			</g>
			<g>
				<rect x="58.668" y="20.397" fill="#FFFFFF" width="85.582" height="3.198"/>
			</g>
			<g>
				<path fill="#FFFFFF" d="M60.892,7.476l-0.233,1.217h0.605l0.233-1.217h0.63l-0.233,1.217h0.479v0.678h-0.588l-0.144,0.744h0.563
					v0.677h-0.708L61.3,11.83h-0.636l0.197-1.038h-0.605l-0.197,1.038h-0.636l0.197-1.038h-0.545v-0.677h0.677l0.145-0.744h-0.576
					V8.694h0.702l0.233-1.217H60.892z M60.388,10.115H61l0.155-0.744h-0.623L60.388,10.115z"/>
				<path fill="#FFFFFF" d="M64.463,10.834h1.409v0.996h-2.585V7.308h1.176V10.834z"/>
				<path fill="#FFFFFF" d="M71.151,9.485c0,1.463-1.05,2.495-2.501,2.495s-2.5-1.031-2.5-2.495c0-1.367,1.199-2.327,2.5-2.327
					C69.951,7.158,71.151,8.118,71.151,9.485z M67.372,9.491c0,0.78,0.576,1.35,1.277,1.35c0.702,0,1.277-0.57,1.277-1.35
					c0-0.624-0.575-1.193-1.277-1.193C67.948,8.298,67.372,8.867,67.372,9.491z"/>
				<path fill="#FFFFFF" d="M75.052,8.825c-0.24-0.324-0.63-0.498-1.031-0.498c-0.72,0-1.206,0.552-1.206,1.253
					c0,0.713,0.492,1.229,1.224,1.229c0.384,0,0.768-0.186,1.014-0.479v1.409c-0.39,0.12-0.672,0.21-1.038,0.21
					c-0.629,0-1.229-0.24-1.696-0.666c-0.498-0.45-0.726-1.037-0.726-1.709c0-0.618,0.233-1.211,0.665-1.655
					c0.444-0.456,1.086-0.732,1.722-0.732c0.377,0,0.726,0.084,1.073,0.228V8.825z"/>
				<path fill="#FFFFFF" d="M77.051,11.044l-0.312,0.786h-1.248l1.739-4.521h1.283l1.703,4.521h-1.253l-0.294-0.786H77.051z
					 M77.872,8.705h-0.012l-0.485,1.439h0.978L77.872,8.705z"/>
				<path fill="#FFFFFF" d="M81.88,10.834h1.409v0.996h-2.585V7.308h1.176V10.834z"/>
			</g>
		</g>
	</g>
	<g>
		<path fill="#A7D383" d="M78.572,57.091c0-1.65-1.35-3-3-3H26.609c-1.65,0-3,1.35-3,3V77.09c0,1.65,1.35,3,3,3h48.963
			c1.65,0,3-1.35,3-3V57.091z"/>
	</g>
	<polygon fill="#A7D383" points="71.508,90.851 56.556,75.002 71.508,75.002 	"/>
	<g>
		<rect x="28.688" y="65.894" fill="#FFFFFF" width="44.806" height="2"/>
	</g>
	<g>
		<rect x="47.256" y="58.347" fill="#FFFFFF" width="26.237" height="2"/>
	</g>
	<g>
		<rect x="28.688" y="73.44" fill="#FFFFFF" width="44.806" height="2"/>
	</g>
	<g>
		<path fill="#FFFFFF" d="M29.867,57.896l-0.156,0.812h0.404l0.155-0.812h0.42l-0.156,0.812h0.32v0.452h-0.392l-0.096,0.496h0.375
			v0.452H30.27l-0.132,0.691h-0.424l0.132-0.691h-0.403l-0.132,0.691h-0.424l0.132-0.691h-0.364v-0.452h0.452l0.096-0.496h-0.384
			v-0.452h0.468l0.156-0.812H29.867z M29.531,59.655h0.407l0.104-0.496h-0.416L29.531,59.655z"/>
		<path fill="#FFFFFF" d="M32.247,60.135h0.939v0.664h-1.723v-3.014h0.783V60.135z"/>
		<path fill="#FFFFFF" d="M36.706,59.236c0,0.975-0.7,1.663-1.667,1.663c-0.968,0-1.668-0.688-1.668-1.663
			c0-0.912,0.8-1.551,1.668-1.551C35.906,57.684,36.706,58.324,36.706,59.236z M34.187,59.24c0,0.52,0.384,0.899,0.852,0.899
			c0.467,0,0.852-0.38,0.852-0.899c0-0.416-0.385-0.795-0.852-0.795C34.571,58.444,34.187,58.824,34.187,59.24z"/>
		<path fill="#FFFFFF" d="M39.306,58.796c-0.16-0.216-0.42-0.332-0.688-0.332c-0.479,0-0.803,0.368-0.803,0.836
			c0,0.476,0.327,0.819,0.815,0.819c0.256,0,0.512-0.124,0.676-0.32v0.939c-0.261,0.08-0.448,0.14-0.692,0.14
			c-0.42,0-0.819-0.16-1.131-0.444c-0.332-0.3-0.484-0.692-0.484-1.139c0-0.412,0.156-0.808,0.444-1.104
			c0.296-0.304,0.724-0.488,1.147-0.488c0.252,0,0.483,0.056,0.716,0.152V58.796z"/>
		<path fill="#FFFFFF" d="M40.639,60.275l-0.208,0.524h-0.831l1.159-3.014h0.855l1.136,3.014h-0.836l-0.196-0.524H40.639z
			 M41.186,58.716h-0.008l-0.324,0.959h0.651L41.186,58.716z"/>
		<path fill="#FFFFFF" d="M43.858,60.135h0.939v0.664h-1.723v-3.014h0.783V60.135z"/>
	</g>
	<g>
		<g>
			<path fill="#A7D383" d="M178.444,60.946c0-1.375-1.125-2.5-2.5-2.5h-41.835c-1.375,0-2.5,1.125-2.5,2.5v11.05
				c0,1.375,1.125,2.5,2.5,2.5h41.835c1.375,0,2.5-1.125,2.5-2.5V60.946z"/>
		</g>
		<polygon fill="#A7D383" points="140.085,82.101 152.826,68.596 140.085,68.596 		"/>
		<g>
			<rect x="150.791" y="62.408" fill="#FFFFFF" width="23.326" height="1.704"/>
		</g>
		<g>
			<rect x="135.937" y="68.67" fill="#FFFFFF" width="38.18" height="1.704"/>
		</g>
		<g>
			<path fill="#FFFFFF" d="M136.94,61.691l-0.133,0.69h0.344l0.133-0.69h0.356l-0.132,0.69h0.271v0.385h-0.333l-0.082,0.422h0.32
				v0.384h-0.401l-0.112,0.589h-0.361l0.112-0.589h-0.344l-0.112,0.589h-0.36l0.112-0.589h-0.31v-0.384h0.385l0.081-0.422h-0.326
				v-0.385h0.397l0.133-0.69H136.94z M136.654,63.188h0.347l0.089-0.422h-0.354L136.654,63.188z"/>
			<path fill="#FFFFFF" d="M138.969,63.596h0.8v0.565h-1.467v-2.565h0.667V63.596z"/>
			<path fill="#FFFFFF" d="M142.766,62.831c0,0.831-0.596,1.416-1.419,1.416c-0.824,0-1.419-0.585-1.419-1.416
				c0-0.776,0.68-1.32,1.419-1.32C142.086,61.511,142.766,62.055,142.766,62.831z M140.622,62.834c0,0.442,0.327,0.766,0.726,0.766
				c0.397,0,0.725-0.323,0.725-0.766c0-0.354-0.327-0.677-0.725-0.677C140.949,62.157,140.622,62.48,140.622,62.834z"/>
			<path fill="#FFFFFF" d="M144.982,62.457c-0.136-0.184-0.357-0.283-0.585-0.283c-0.408,0-0.685,0.313-0.685,0.711
				c0,0.405,0.279,0.697,0.694,0.697c0.218,0,0.436-0.105,0.575-0.272v0.799c-0.221,0.068-0.381,0.119-0.589,0.119
				c-0.357,0-0.697-0.136-0.963-0.377c-0.282-0.255-0.411-0.589-0.411-0.97c0-0.351,0.132-0.688,0.377-0.939
				c0.252-0.258,0.616-0.415,0.977-0.415c0.215,0,0.412,0.048,0.609,0.129V62.457z"/>
			<path fill="#FFFFFF" d="M146.12,63.716l-0.177,0.446h-0.708l0.987-2.565h0.728l0.967,2.565h-0.711l-0.167-0.446H146.12z
				 M146.586,62.388h-0.007l-0.275,0.817h0.555L146.586,62.388z"/>
			<path fill="#FFFFFF" d="M148.864,63.596h0.8v0.565h-1.467v-2.565h0.667V63.596z"/>
		</g>
	</g>
	<g>
		<path fill="#A7D383" d="M125.796,57.879c0-11.991-9.756-21.747-21.747-21.747c-11.991,0-21.747,9.756-21.747,21.747
			c0,4.241,1.225,8.199,3.333,11.549l18.453,22.705l18.405-22.753C124.583,66.04,125.796,62.099,125.796,57.879z"/>
		<g>
			<path fill="#FFFFFF" d="M95.653,76.716l1.398-10.547h-4.413v-3.175h4.899l1.021-7.804h-4.627v-3.175h5.114l1.398-10.28h3.12
				l-1.345,10.28h5.6l1.398-10.28h3.177l-1.345,10.28h4.413v3.175h-4.899l-0.968,7.804h4.627v3.175h-5.114l-1.398,10.547h-3.229
				l1.402-10.547h-5.6l-1.398,10.547H95.653z M106.363,62.994l1.021-7.804h-5.596l-1.021,7.804H106.363z"/>
		</g>
	</g>
</g>
</svg>
