<?xml version="1.0" encoding="utf-8"?>
<!-- Generator: Adobe Illustrator 17.0.0, SVG Export Plug-In . SVG Version: 6.00 Build 0)  -->
<!DOCTYPE svg PUBLIC "-//W3C//DTD SVG 1.1//EN" "http://www.w3.org/Graphics/SVG/1.1/DTD/svg11.dtd">
<svg version="1.1" id="Layer_1" xmlns="http://www.w3.org/2000/svg" xmlns:xlink="http://www.w3.org/1999/xlink" x="0px" y="0px"
	 width="203px" height="98px" viewBox="0 0 203 98" enable-background="new 0 0 203 98" xml:space="preserve">
<g>
	<polygon fill="#FFFFFF" points="202.934,98 0.066,98 39.411,9.599 163.589,9.599 	"/>
	<polygon fill="#E6E7E8" points="198.873,95.717 4.127,95.717 41.127,10.971 161.873,10.971 	"/>
	<g>
		<polygon fill="#BCBEC0" points="110.023,84.289 85.243,77.741 79.433,95.717 107.021,95.717 		"/>
		<path fill="#BCBEC0" d="M130.634,43.106l-14.116-32.134H68.927c0,6.229,0,16.027,0,29.165c30.536,0,51.576,1.294,51.576,1.294
			L130.634,43.106z"/>
		<polygon fill="#BCBEC0" points="175.347,41.833 138.56,40.136 136.548,61.433 144.596,62.479 179.326,50.947 		"/>
	</g>
	<g>
		<path fill="#E6E7E8" d="M140.494,44.218c0,0,0-0.008,0-33.246h-27.487c0,5.932,0,13.854,0,19.338
			c5.664,2.764,17.627,12.796,17.627,12.796L140.494,44.218z"/>
		<path fill="#E6E7E8" d="M165.81,19.99c-7.033,2.71-12.35,5.771-12.35,8.831c5.438,0,10.958,0,16.206,0L165.81,19.99z"/>
		<path fill="#E6E7E8" d="M47.686,80.25c2.945,0,47.617,5.018,54.659,5.645c7.042,0.627,44.263-3.763,44.263-3.763l-11.066-15.053
			L91.784,56.834L42.321,66.66v13.802C42.321,80.462,44.742,80.25,47.686,80.25z"/>
	</g>
	<g>
		<path fill="#D1D3D4" d="M90.077,40.136c0,0,0,0,0,10.902c25.963,0,34.378,9.846,34.378,9.846h16.039V44.218
			C128.406,37.397,90.077,40.136,90.077,40.136z"/>
		<rect x="42.321" y="10.971" fill="#D1D3D4" width="37.181" height="64.277"/>
		<path fill="#D1D3D4" d="M169.666,28.821H157.18c0,0-2.002-2.081,5.339-5.826c0.954-0.487,2.297-1.03,3.902-1.607l-4.548-10.417
			h-21.379v33.246c0,0,17.714,0,35.894,0L169.666,28.821z"/>
	</g>
	<g>
		<polygon fill="#F1F2F2" points="153.241,82.131 112.788,71.395 107.159,95.717 111.343,95.717 		"/>
		<path fill="#F1F2F2" d="M93.291,80.459L51.71,77.741c0,0-2.458,8.988-1.486,17.977h34.601L93.291,80.459z"/>
		<path fill="#F1F2F2" d="M90.077,51.038V40.136h-21.15v11.801C73.74,51.937,90.077,51.038,90.077,51.038z"/>
	</g>
	<path fill="#C9DDF2" d="M194.6,85.93c-6.662-1.486-20.036-5.427-32.28-14.856C153.882,61,112.588,44.321,56.213,52.94
		c-12.481,2.005-28.802,9.935-39.693,14.391L9.225,84.04c9.055-3.701,40.203-16.156,51.656-17.108
		c13.465-1.119,43.089-4.366,57.093,1.567c14.004,5.933,20.467,11.082,26.751,16.231c3.007,2.464,10.443,7.304,20.128,10.987h34.02
		L194.6,85.93z"/>
	<path fill="#FFFFFF" d="M186.155,63.387l-0.807-1.908h-51.816l-10.296-27.542h50.472l-0.845-2h-50.374l-7.977-21.338h-2.135
		l7.977,21.338H82.54l7.98-21.338h-2.135l-7.98,21.338H31.258l-0.858,2h49.257L69.356,61.479H18.587l-0.858,2h50.879L56.071,97
		h2.135l12.537-33.521h61.402L144.677,97h2.135L134.28,63.479h51.467C185.893,63.479,186.03,63.444,186.155,63.387z M71.491,61.479
		l10.301-27.542h39.309l10.296,27.542H71.491z"/>
	<g>
		<path fill="#A7D383" d="M123.042,57.267c0-11.991-9.756-21.747-21.747-21.747c-11.991,0-21.747,9.756-21.747,21.747
			c0,4.241,1.225,8.199,3.333,11.549l18.453,22.705l18.405-22.753C121.83,65.429,123.042,61.488,123.042,57.267z"/>
		<g>
			<path fill="#FFFFFF" d="M92.9,76.104l1.398-10.547h-4.413v-3.175h4.899l1.021-7.804h-4.627v-3.175h5.114l1.398-10.28h3.12
				l-1.345,10.28h5.6l1.398-10.28h3.177l-1.345,10.28h4.413v3.175h-4.899l-0.968,7.804h4.627v3.175h-5.114l-1.398,10.547h-3.229
				l1.402-10.547h-5.6l-1.398,10.547H92.9z M103.609,62.382l1.021-7.804h-5.596l-1.021,7.804H103.609z"/>
		</g>
	</g>
	<g>
		<path fill="#A7D383" d="M111.042,12.556c0-5.067-4.123-9.19-9.19-9.19c-5.067,0-9.19,4.123-9.19,9.19
			c0,1.792,0.518,3.465,1.408,4.88l7.798,9.595l7.778-9.615C110.53,16.004,111.042,14.339,111.042,12.556z"/>
		<g>
			<path fill="#FFFFFF" d="M98.305,20.516l0.591-4.457h-1.865v-1.342h2.07l0.431-3.298h-1.955v-1.342h2.161l0.591-4.344h1.318
				l-0.568,4.344h2.367l0.591-4.344h1.343l-0.568,4.344h1.865v1.342h-2.07l-0.409,3.298h1.955v1.342h-2.161l-0.591,4.457h-1.365
				l0.593-4.457h-2.367l-0.591,4.457H98.305z M102.83,14.717l0.431-3.298h-2.365l-0.431,3.298H102.83z"/>
		</g>
	</g>
	<path fill="#A7D383" d="M166.443,31.395c0-8.043-6.544-14.587-14.587-14.587c-8.043,0-14.587,6.544-14.587,14.587
		c0,2.845,0.822,5.5,2.236,7.746l12.378,15.23l12.346-15.262C165.629,36.87,166.443,34.226,166.443,31.395z"/>
	<g>
		<path fill="#FFFFFF" d="M146.224,44.03l0.938-7.075h-2.96v-2.129h3.286l0.685-5.235h-3.104v-2.129h3.43l0.938-6.895h2.093
			l-0.902,6.895h3.756l0.938-6.895h2.131l-0.902,6.895h2.96v2.129h-3.286l-0.65,5.235h3.104v2.129h-3.43l-0.938,7.075h-2.166
			l0.941-7.075h-3.756l-0.938,7.075H146.224z M153.408,34.826l0.685-5.235h-3.753l-0.685,5.235H153.408z"/>
	</g>
	<path fill="#A7D383" d="M66.584,31.395c0-8.043-6.544-14.587-14.587-14.587c-8.043,0-14.587,6.544-14.587,14.587
		c0,2.845,0.822,5.5,2.236,7.746l12.378,15.23l12.346-15.262C65.77,36.87,66.584,34.226,66.584,31.395z"/>
	<g>
		<path fill="#FFFFFF" d="M46.365,44.03l0.938-7.075h-2.96v-2.129h3.286l0.685-5.235H45.21v-2.129h3.43l0.938-6.895h2.093
			l-0.902,6.895h3.756l0.938-6.895h2.131l-0.902,6.895h2.96v2.129h-3.286l-0.65,5.235h3.104v2.129h-3.43l-0.938,7.075h-2.166
			l0.941-7.075h-3.756l-0.938,7.075H46.365z M53.549,34.826l0.685-5.235H50.48l-0.685,5.235H53.549z"/>
	</g>
</g>
</svg>
